<!DOCTYPE svg PUBLIC "-//W3C//DTD SVG 1.1//EN" "http://www.w3.org/Graphics/SVG/1.1/DTD/svg11.dtd">
<!-- Uploaded to: SVG Repo, www.svgrepo.com, Transformed by: SVG Repo Mixer Tools -->
<svg fill="#313F38" version="1.1" id="Capa_1" xmlns="http://www.w3.org/2000/svg" xmlns:xlink="http://www.w3.org/1999/xlink" width="800px" height="800px" viewBox="0 0 46 46" xml:space="preserve">
<g id="SVGRepo_bgCarrier" stroke-width="0"/>
<g id="SVGRepo_tracerCarrier" stroke-linecap="round" stroke-linejoin="round"/>
<g id="SVGRepo_iconCarrier"> <g> <g> <path d="M19.988,21.369c-1.925,0-3.475,1.554-3.475,3.479V36.08c0,1.925,1.55,3.51,3.475,3.51h19.538 c1.925,0,3.473-1.584,3.473-3.51V24.85c0-1.926-1.548-3.479-3.473-3.479h-3.725v-1.562c0-1.843-1.494-3.331-3.336-3.331H27.05 c-1.844,0-3.339,1.487-3.339,3.331v1.562L19.988,21.369L19.988,21.369z M26.017,19.807c0-0.572,0.459-1.025,1.033-1.025h5.416 c0.572,0,1.03,0.453,1.03,1.025v1.562h-7.479V19.807L26.017,19.807z"/> <path d="M43.711,42.007H12.744V20.753c4.836-0.929,8.483-5.186,8.483-10.282C21.228,4.697,16.528,0,10.754,0 C4.98,0,0.29,4.697,0.29,10.471c0,5.084,3.626,9.333,8.462,10.275v21.261H3.738c-1.104,0-1.999,0.894-1.999,1.997 C1.74,45.107,2.635,46,3.738,46h39.973c1.104,0,1.999-0.893,1.999-1.996C45.709,42.9,44.813,42.007,43.711,42.007z M4.277,10.471 c0-3.57,2.904-6.474,6.474-6.474c3.57,0,6.474,2.904,6.474,6.474c0,3.569-2.904,6.474-6.474,6.474 C7.181,16.945,4.277,14.041,4.277,10.471z"/> <path d="M10.841,11.578c0.552-0.06,0.951-0.555,0.892-1.107l-0.536-4.997c-0.023-0.213-0.192-0.39-0.414-0.414 c-0.256-0.027-0.486,0.158-0.513,0.414l-0.536,4.997c-0.007,0.068-0.008,0.144,0,0.214C9.793,11.237,10.289,11.637,10.841,11.578z "/> <circle cx="10.751" cy="15.047" r="0.915"/> <circle cx="6.069" cy="10.471" r="0.915"/> <circle cx="15.22" cy="10.471" r="0.915"/> </g> </g> </g>
</svg>